# xmcd CD database file
#
# Track frame offsets:
#	150
#	63466
#	150435
#	226534
#	270747
#
# Disc length: 4799 seconds
#
# Revision: 0
# Processed by: cddbd v1.5.1PL0 Copyright (c) Steve Scherf et al.
# Submitted via: CDex 1.51
#
DISCID=3212bd05
DTITLE=Various Artist - Trumpet Summit - Live at Club Ruby 1968 - A Memorial Tribute To  Fats Navarro, Clifford Brown and Booker Little
DYEAR=2005
DGENRE=Jazz
TTITLE0=Bags Groove - Kenny Dorham, Bill Hardman, Richard Williams
TTITLE1=What's New? - Woody Shaw, Walter Kelly, Blue Mitchell
TTITLE2=Confirmation - Kenny Dorham, Bill Hardman, Richard Williams
TTITLE3=Blues - Woody Shaw, Walter Kelly, Kenny Dorham, Blue Mitchell, Bill Hardman (fade)
TTITLE4=Sweet Clifford - Woody Shaw, Bill Hardman, Richard Williams, Kenny Dorham, Blue Mitchell
EXTD=YEAR: 2005
EXTT0=
EXTT1=
EXTT2=
EXTT3=
EXTT4=
PLAYORDER=
